<svg xmlns="http://www.w3.org/2000/svg" viewBox="0 0 52.29 33.4"><defs><style>.cls-1{fill:none;stroke:#fefaec;stroke-miterlimit:10;stroke-width:1.2px;}</style></defs><title>Asset 4</title><g id="Layer_2" data-name="Layer 2"><g id="Layer_4" data-name="Layer 4"><path class="cls-1" d="M16.91,5.17S18.38,1.48,21.47,3l8.89,5.17"/><path class="cls-1" d="M24.09,3.51c-.39,1.11.4-3.5,4-1.58,2.68,1.43,4.69,2.67,4.69,2.67a4.59,4.59,0,0,1,5.39,1.8c4.17,5.74,8.27,12.39,8.27,12.39a43.45,43.45,0,0,1,5.18,5.05c.67,1-3.38,8.52-8.79,8.95a61.54,61.54,0,0,1-6.05-5.92s-11.33-3.41-13.91-4.66-5.73-11.14-5.73-11.14"/><path class="cls-1" d="M28.19,18.55C26.55,17.44,19,12.28,11.91,7.79,6.85,6.85,3.17,5.47,1.36,3.36a2.19,2.19,0,0,1-.7-2A1.1,1.1,0,0,1,1.8.6L12.1,2.74l14.28,8.55"/></g></g></svg>